<?xml version="1.0" encoding="UTF-8"?><svg id="Layer_2" xmlns="http://www.w3.org/2000/svg" viewBox="0 0 234.93 84.27"><defs><style>.cls-1{fill:#231f20;}</style></defs><g id="Layer_2-2"><path class="cls-1" d="m60.77,41.65c0,10.28-8.37,18.65-18.65,18.65s-18.65-8.37-18.65-18.65,8.37-18.65,18.65-18.65,18.65,8.37,18.65,18.65Zm-6.66,0c0-6.61-5.38-11.99-11.99-11.99s-11.99,5.38-11.99,11.99,5.38,11.99,11.99,11.99,11.99-5.38,11.99-11.99Z"/><path class="cls-1" d="m82.19,23.05c10.28,0,18.65,8.31,18.65,18.6,0,4.58-1.65,8.79-4.42,12.04-.32.37-.69.75-1.06,1.12-3.36,3.41-7.99,5.49-13.11,5.49h-18.65V23h18.65l-.05.05Zm11.99,18.65c0-6.61-5.38-11.99-11.99-11.99h-11.99v23.98h11.99c6.61,0,11.99-5.38,11.99-11.99Z"/><path class="cls-1" d="m111.66,33.07v3.46h12.97v6.66h-12.97v7.03c0,1.86,1.54,3.41,3.41,3.41h27.23v6.66h-27.23c-5.54,0-10.02-4.53-10.02-10.07v-17.16c0-5.54,4.48-10.07,10.02-10.07h27.23v6.66h-27.23c-1.87,0-3.41,1.54-3.41,3.41Z"/><path class="cls-1" d="m169.34,48.41c0,6.55-5.33,11.88-11.88,11.88h-25.42V23h23.5c5.54,0,10.07,4.53,10.07,10.07,0,2.03-.59,3.89-1.6,5.44,3.2,2.13,5.33,5.75,5.33,9.91Zm-30.64-11.94h16.89c1.87,0,3.41-1.54,3.41-3.41s-1.54-3.41-3.41-3.41h-16.89v6.82Zm18.76,17.1c2.88,0,5.22-2.35,5.22-5.22s-2.34-5.22-5.22-5.22h-18.76v10.5h18.76v-.05Z"/><path class="cls-1" d="m204.61,53.63l-15.61-30.64-15.62,30.64-3.41,6.66h7.46l3.1-6.05h16.93l3.1,6.05h7.46l-3.41-6.66Zm-21.09-5.25l5.48-10.74,5.47,10.74h-10.95Z"/><path class="cls-1" d="m197.63,60.29h.11l-.11.11v-.11Zm37.3-37.35l-14.44,18.7-.8,1.01v17.58h-6.66v-17.48l-.9-1.12-14.44-18.7h8.42l10.23,13.27,10.23-13.27h8.37Zm-.05,37.35h.05v.11l-.05-.11Z"/><path class="cls-1" d="m15.05,42.14c0,14.93,12.16,27.09,27.09,27.09h22.12l20.02,15.05h-42.14C18.9,84.27,0,65.37,0,42.14S18.9,0,42.14,0h42.14l-20.02,15.05h-22.12c-14.93,0-27.09,12.16-27.09,27.09Z"/><path class="cls-1" d="m92.52,80.57c.25-.31.71-.35,1.02-.1.62.5,1.68,1.09,2.68,1.08.7,0,1.33-.21,1.75-.52.42-.31.6-.66.6-1.01,0-.18-.04-.31-.13-.45-.08-.14-.21-.28-.42-.42-.41-.27-1.09-.5-1.92-.66h-.03c-.66-.13-1.27-.29-1.81-.55s-.99-.6-1.3-1.09c-.21-.34-.32-.73-.32-1.15,0-.84.48-1.57,1.12-2.04.66-.48,1.51-.74,2.42-.74,1.34,0,2.34.66,3.05,1.12.32.22.42.67.2.99-.21.34-.66.43-.99.21-.71-.48-1.4-.9-2.26-.9-.63,0-1.19.2-1.57.48-.38.28-.53.59-.53.88,0,.17.03.28.1.39.07.11.2.24.38.36.36.25,1,.48,1.75.62h.03c.71.14,1.37.32,1.93.59.58.28,1.08.64,1.4,1.16.21.34.34.76.34,1.19,0,.9-.5,1.67-1.2,2.17-.69.5-1.6.8-2.59.8-1.51-.01-2.79-.77-3.59-1.4-.31-.25-.35-.71-.11-1.02Z"/><path class="cls-1" d="m116.89,74.42c.87.92,1.42,2.16,1.42,3.54s-.55,2.63-1.42,3.54c-.83.91-2.06,1.5-3.35,1.5s-2.58-.59-3.43-1.5c-.87-.91-1.39-2.16-1.39-3.54s.52-2.62,1.39-3.54c.85-.92,2.09-1.5,3.43-1.5s2.52.57,3.35,1.5Zm-.18,3.54c0-.95-.38-1.83-.95-2.45-.59-.63-1.37-.99-2.21-.99-.9,0-1.68.36-2.27.99-.59.62-.95,1.5-.95,2.45s.36,1.83.95,2.44c.59.63,1.37,1.01,2.27,1.01.84,0,1.62-.38,2.21-1.01.57-.6.95-1.48.95-2.44Z"/><path class="cls-1" d="m128.06,82.24v-8.26c0-.42.34-.77.77-.77s.78.35.78.77v7.48h3.8c.41,0,.77.35.77.78s-.36.77-.77.77h-4.58c-.43,0-.77-.35-.77-.77Z"/><path class="cls-1" d="m147.01,83.01c-2.25,0-4.05-1.82-4.05-4.05v-4.99c0-.43.34-.77.77-.77s.78.34.78.77v4.99c0,1.37,1.12,2.49,2.49,2.49s2.49-1.12,2.49-2.49v-4.99c0-.43.35-.77.78-.77s.77.34.77.77v4.99c0,2.23-1.81,4.05-4.05,4.05Z"/><path class="cls-1" d="m167.33,74.76h-2.23v7.48c0,.43-.34.77-.77.77s-.77-.34-.77-.77v-7.48h-2.21c-.43,0-.77-.36-.77-.79s.34-.77.77-.77h5.98c.42,0,.77.34.77.77s-.35.79-.77.79Z"/><path class="cls-1" d="m177.51,73.98c0-.43.34-.77.77-.77s.78.34.78.77v8.26c0,.43-.36.77-.78.77s-.77-.34-.77-.77v-8.26Z"/><path class="cls-1" d="m196.41,74.42c.87.92,1.41,2.16,1.41,3.54s-.55,2.63-1.41,3.54c-.83.91-2.06,1.5-3.35,1.5s-2.58-.59-3.43-1.5c-.87-.91-1.39-2.16-1.39-3.54s.52-2.62,1.39-3.54c.85-.92,2.09-1.5,3.43-1.5s2.52.57,3.35,1.5Zm-.18,3.54c0-.95-.38-1.83-.95-2.45-.59-.63-1.37-.99-2.21-.99-.9,0-1.68.36-2.27.99-.59.62-.95,1.5-.95,2.45s.36,1.83.95,2.44c.59.63,1.37,1.01,2.27,1.01.84,0,1.62-.38,2.21-1.01.57-.6.95-1.48.95-2.44Z"/><path class="cls-1" d="m209.12,82.24c0,.42-.35.77-.76.77-.43,0-.77-.35-.77-.77v-8.14h0c-.01-.25.1-.5.31-.66.35-.24.83-.17,1.06.17l4.52,6.26v-5.77c0-.41.34-.76.76-.76s.77.35.77.76v8.14c0,.42-.35.77-.77.77-.22,0-.43-.11-.57-.28-.03-.03-.06-.06-.07-.08l-4.48-6.22v5.81Z"/><path class="cls-1" d="m225.07,80.57c.25-.31.71-.35,1.02-.1.62.5,1.68,1.09,2.68,1.08.7,0,1.33-.21,1.75-.52.42-.31.6-.66.6-1.01,0-.18-.04-.31-.13-.45-.08-.14-.21-.28-.42-.42-.41-.27-1.09-.5-1.92-.66h-.03c-.66-.13-1.28-.29-1.81-.55s-.99-.6-1.3-1.09c-.21-.34-.32-.73-.32-1.15,0-.84.48-1.57,1.12-2.04.66-.48,1.51-.74,2.42-.74,1.34,0,2.34.66,3.05,1.12.32.22.42.67.2.99-.21.34-.66.43-.99.21-.71-.48-1.4-.9-2.26-.9-.63,0-1.19.2-1.57.48-.38.28-.53.59-.53.88,0,.17.03.28.1.39.07.11.2.24.38.36.36.25,1,.48,1.75.62h.03c.71.14,1.37.32,1.93.59.58.28,1.08.64,1.4,1.16.21.34.34.76.34,1.19,0,.9-.5,1.67-1.2,2.17-.69.5-1.6.8-2.59.8-1.51-.01-2.79-.77-3.59-1.4-.31-.25-.35-.71-.11-1.02Z"/></g></svg>